<svg version="1.2" xmlns="http://www.w3.org/2000/svg" viewBox="0 0 92 100" width="92" height="100"><style>.a{fill:#97bf68}</style><path fill-rule="evenodd" class="a" d="m80.2 55.8v15.2c0 15.7-12.7 28.5-28.5 28.5-15.7 0-28.4-12.8-28.4-28.5v-3.3c-13.1-2.1-22.7-13.3-22.7-26.6v-21.5c0-4.2 2.1-8.2 5.7-10.5 0.3-4.9 4.5-8.7 9.5-8.4 4.9 0.3 8.7 4.6 8.4 9.5-0.3 5-4.6 8.8-9.5 8.4-1.8-0.1-3.5-0.7-4.9-1.7-0.6 0.7-1 1.7-1 2.7v21.5c0 10.3 8.3 18.6 18.6 18.6 10.3 0 18.6-8.3 18.6-18.6v-21.5c0-0.9-0.3-1.8-0.8-2.5-4.1 2.8-9.7 1.7-12.5-2.4-2.7-4.1-1.7-9.7 2.5-12.5 4.1-2.8 9.6-1.7 12.4 2.4 1 1.5 1.5 3.2 1.5 4.9 3.2 2.4 5.1 6.1 5.1 10.1v21.5c0 13.3-9.6 24.5-22.7 26.6v3.3c0 11.2 9.1 20.2 20.2 20.2 11.2 0 20.2-9 20.2-20.2v-15.2c-8.5-2.3-13.5-11-11.2-19.6 2.2-8.5 11-13.5 19.5-11.3 8.5 2.3 13.5 11.1 11.3 19.6-1.5 5.5-5.8 9.8-11.3 11.3zm3.6-15.4c0-4.3-3.5-7.7-7.7-7.7-4.3 0-7.7 3.4-7.7 7.7 0 4.2 3.4 7.7 7.7 7.7 4.2 0 7.7-3.5 7.7-7.7z"/></svg>