<svg version="1.2" xmlns="http://www.w3.org/2000/svg" viewBox="0 0 101 100" width="101" height="100"><style>.a{fill:#de6085}</style><path fill-rule="evenodd" class="a" d="m0 31c0.1-6 0.6-10.9 3.3-15.2 4.7-7.5 11.1-13.1 20-15 5.3-1.2 10.3-0.3 15.2 1.7 3.4 1.5 6.5 3.4 9.4 5.6 0.7 0.6 1.1 0.6 1.8 0.1 5.1-3.3 10.5-5.8 16.4-7 6.6-1.4 13-1.1 18.9 2.4 7.6 4.5 12.4 11.3 14.4 19.9 1.4 5.9 0.6 11.8-0.9 17.6-0.3 1-0.9 2-0.9 3 0.1 1 0.7 2 1.1 3 4.1 11.8-1 24.9-12.1 30.6-0.7 0.3-1 0.8-1.2 1.4-1.2 3.9-2.6 7.7-4.7 11.2-2 3.3-4.7 6-7.6 8.4-2.1 1.7-4.9 1.7-7.4 0.2-2-1.3-3.6-3-5.1-4.8-2.5-3.1-5-6.2-7.6-9.2-0.8-1-1.9-1.8-3-2.5-0.8-0.6-1.8-0.6-2.7-0.1-1.8 1-3.1 2.4-4.4 4-2.4 2.8-4.7 5.8-7.2 8.6-1.1 1.3-2.4 2.6-3.8 3.6-3.1 2.2-6.1 1.9-9-0.6-4.7-4.3-7.9-9.6-9.9-15.5-1.5-4.4-2.7-8.9-4-13.3-1.6-5.6-3.3-11.2-5-16.8-1.4-4.8-2.6-9.7-3.3-14.6-0.4-2.6-0.5-5.2-0.7-6.7zm93.3 7.2q0.1-0.1 0.2-0.1c0.9-3.7 1.3-7.4 0.9-11.1-0.5-4.5-2.3-8.5-5-12.1-2.9-3.8-6.5-6.8-11.2-8.1-4.1-1.2-8.3-0.9-12.4 0.2-5.3 1.4-10.1 3.8-14.6 7-2.1 1.6-3 1.5-5-0.1-2.2-1.7-4.4-3.4-6.7-4.8-6.1-3.5-12.4-4.5-19.1-1.6-4 1.8-7.2 4.7-10.1 8-2 2.2-3.2 4.7-3.9 7.6-1.1 4.4-0.9 8.9-0.3 13.3 0.8 5.1 2 10.1 3.5 15q2.5 8.6 5 17.1c1.3 4.3 2.5 8.7 4 12.9 1.7 4.8 4.3 9.1 8.3 12.5 0.5 0.5 1 0.6 1.6 0.2 0.8-0.7 1.7-1.4 2.4-2.2 1.9-2.1 3.7-4.4 5.5-6.6 2-2.5 4-4.9 6.6-6.9 3.6-2.7 7.1-2.8 10.8-0.3 2.3 1.6 4.1 3.7 5.8 5.8 2.2 2.7 4.3 5.4 6.6 8 0.7 0.9 1.7 1.5 2.5 2.2 0.4 0.4 0.8 0.3 1.2-0.1 3.9-3 6.7-6.8 8.4-11.5q0.4-1.1 0.8-2.3c-13.6 1.9-24.1-6.3-27.6-16.4-3.8-10.7 0.1-22.6 9.6-29.1 9.4-6.4 23.2-5.9 32.2 3.5zm-18.2 36.7c10.7 0 19.4-8.7 19.4-19.4 0.1-10.7-8.7-19.5-19.4-19.5-10.7-0.1-19.4 8.7-19.4 19.4-0.1 10.8 8.6 19.5 19.4 19.5zm-2.8-22.3c0-1.7 0-3.3 0-5q0-1.6 0-3.2c0-1.7 1.2-2.8 2.7-2.9 1.6 0 2.8 1.2 2.9 2.8 0 2.4 0 4.9 0 7.3 0 0.3 0 0.6 0 1 0.4 0 0.6 0 0.9 0 2.4 0 4.8 0 7.2 0.1 2 0 3.2 1.4 2.9 3.2-0.2 1.4-1.3 2.3-2.7 2.3q-3.7 0-7.4 0c-0.3 0-0.5 0-0.9 0 0 0.4 0 0.7 0 1q0 3.6 0 7.2c0 1.3-0.5 2.2-1.7 2.7-1 0.5-2 0.3-2.9-0.4-0.7-0.5-1-1.3-1-2.2 0-2.5 0-4.9 0-7.4 0-0.7-0.2-0.9-0.9-0.9q-3.8 0-7.5 0c-1.5 0-2.6-1.1-2.7-2.5-0.1-1.5 0.9-2.9 2.4-3 1.7-0.1 3.5 0 5.2-0.1 1.1 0 2.3 0 3.5 0z"/></svg>