<svg version="1.2" xmlns="http://www.w3.org/2000/svg" viewBox="0 0 77 110" width="77" height="110"><style>.a{fill:#d096d4}</style><path fill-rule="evenodd" class="a" d="m49.2 0.5l2.7 0.2 2.7-0.2 4.9 88.7c1.7-1.1 3.7-1.7 5.9-1.7 6 0 10.8 4.8 10.8 10.9 0 6-4.8 10.8-10.8 10.8-6 0-10.8-4.8-10.8-10.8l-0.6-10.9h-4.2l-0.7 10.9c0 6-4.8 10.8-10.8 10.8-6 0-10.8-4.8-10.8-10.8 0-6.1 4.8-10.9 10.8-10.9 2.2 0 4.2 0.6 5.9 1.7zm4.5 81.6l-1.8-32.5-1.8 32.5zm-1.8-46.2c-1.5 0-2.7 1.2-2.7 2.7 0 1.5 1.2 2.7 2.7 2.7 1.5 0 2.7-1.2 2.7-2.7 0-1.5-1.2-2.7-2.7-2.7zm-13.5 67.9c3 0 5.4-2.4 5.4-5.4 0-3-2.4-5.4-5.4-5.4-3 0-5.4 2.4-5.4 5.4 0 3 2.4 5.4 5.4 5.4zm27.1-10.8c-3 0-5.4 2.4-5.4 5.4 0 3 2.4 5.4 5.4 5.4 3 0 5.4-2.4 5.4-5.4 0-3-2.4-5.4-5.4-5.4zm-48.8-91.8v31.9c0 2.7-1.2 5-3.2 6.5 1.9 1.2 3.2 3.3 3.2 5.8v57.1c0 3.7-3 6.8-6.8 6.8-3.7 0-6.8-3.1-6.8-6.8v-57.1c0-1.9 0.8-3.6 2.1-4.9-2.8-1.3-4.8-4.1-4.6-7.5 0.7-11.2 3.5-18.4 6.3-23 1.3-2.2 2.7-3.8 3.7-4.8q0.8-0.8 1.3-1.1 0.3-0.2 0.5-0.3 0-0.1 0.1-0.1l0.1-0.1c0 0 0 0 1.4 2.4l-1.4-2.4zm-5.4 12.1c-2.2 3.7-4.6 10-5.3 20.1-0.1 1.3 1 2.5 2.6 2.5 1.5 0 2.7-1.2 2.7-2.7zm0 89.3v-27.4l-2.7 2.7v24.7c0 0.7 0.6 1.3 1.3 1.3 0.8 0 1.4-0.6 1.4-1.3zm0-38.3l-2.7 2.7v3.2l2.7-2.7zm0-10.9l-2.7 2.7v3.2l2.7-2.7zm0-7.9c0-0.8-0.6-1.4-1.4-1.4-0.7 0-1.3 0.6-1.3 1.4v2.9l2.7-2.7z"/></svg>