<?xml version="1.0" encoding="UTF-8"?>
<svg id="_Слой_1" data-name="Слой 1" xmlns="http://www.w3.org/2000/svg" viewBox="0 0 73.65 75">
  <defs>
    <style>
      .cls-1 {
        fill: #e98920;
        stroke-width: 0px;
      }
    </style>
  </defs>
  <path class="cls-1" d="M20.65,34.58h15.2v5.07h-15.2v-5.07Z"/>
  <path class="cls-1" d="M18.09,27.02h40.56v12.43h5.07V11.74c0-2.77-2.25-5.02-5.02-5.02h-1.89c-2.02,0-3.81,1.16-4.56,2.95-.4.94-1.93.94-2.32,0-.75-1.79-2.54-2.95-4.56-2.95h-1.26c-2.02,0-3.81,1.16-4.56,2.95-.4.94-1.93.94-2.32,0-.75-1.79-2.54-2.95-4.56-2.95h-1.21c-2.02,0-3.81,1.16-4.56,2.95-.4.94-1.93.94-2.32,0-.75-1.79-2.54-2.95-4.56-2.95h-1.91c-2.77,0-5.02,2.25-5.02,5.02v55.76h30.32v-5.07h-25.26l-.03-35.42h0ZM19.88,11.62c.99,2.36,3.28,3.88,5.83,3.88s4.84-1.52,5.73-3.73l1.1-.16c.99,2.36,3.28,3.88,5.83,3.88s4.84-1.52,5.73-3.73l1.15-.16c.99,2.36,3.28,3.88,5.83,3.88s4.84-1.52,5.73-3.73l1.85-.05v10.22H18.09v-10.17s1.79-.16,1.79-.16h0Z"/>
  <path class="cls-1" d="M68.18,63.81l-3.89-3.89c1.22-1.81,1.93-4,1.93-6.35,0-6.3-5.1-11.4-11.4-11.4s-11.4,5.1-11.4,11.4,5.1,11.4,11.4,11.4c2.11,0,4.05-.61,5.75-1.61l4.03,4.03,3.58-3.58ZM48.49,53.57c0-3.49,2.84-6.33,6.33-6.33s6.33,2.84,6.33,6.33-2.84,6.33-6.33,6.33-6.33-2.84-6.33-6.33Z"/>
</svg>