<svg version="1.2" xmlns="http://www.w3.org/2000/svg" viewBox="0 0 31 31" width="31" height="31"><style>.a{fill:#d4e6f4}</style><path fill-rule="evenodd" class="a" d="m21.7 16.3l-5.5 5.4c-0.4 0.4-1 0.4-1.3 0-0.4-0.3-0.4-0.9 0-1.3l3.9-4h-10.2c-0.5 0-0.9-0.4-0.9-0.9 0-0.6 0.4-1 0.9-1h10.2l-3.9-4c-0.4-0.3-0.4-0.9 0-1.3 0.3-0.4 0.9-0.4 1.3 0l5.5 5.4c0.2 0.2 0.3 0.6 0.2 0.9 0.1 0.3 0 0.6-0.2 0.8zm-6.3-16.2c-8.5 0-15.4 6.9-15.4 15.4 0 8.5 6.9 15.3 15.4 15.3 8.5 0 15.4-6.8 15.4-15.3 0-8.5-6.9-15.4-15.4-15.4z"/></svg>