<?xml version="1.0" encoding="UTF-8"?>
<svg id="_Слой_1" data-name="Слой 1" xmlns="http://www.w3.org/2000/svg" viewBox="0 0 73.65 75">
  <defs>
    <style>
      .cls-1 {
        fill: #fff;
        stroke-width: 0px;
      }
    </style>
  </defs>
  <path class="cls-1" d="M41.2,60.04h-20.5c-3.85,0-5.96,0-7.96-1.02-1.76-.9-3.17-2.31-4.07-4.07-1.02-1.99-1.02-4.11-1.02-7.96v-17.39c0-3.85,0-5.96,1.02-7.96.9-1.76,2.31-3.17,4.07-4.07,1.99-1.02,4.11-1.02,7.96-1.02h20.5c3.85,0,5.96,0,7.96,1.02,1.76.9,3.17,2.31,4.07,4.07.72,1.41.93,2.88.99,4.97l3.32-1.99c2.95-1.77,4.57-2.74,6.59-2.55,1.77.16,3.38,1.08,4.43,2.51,1.2,1.64,1.2,3.53,1.2,6.97v13.5c0,3.43,0,5.33-1.2,6.97-1.05,1.43-2.66,2.34-4.43,2.51-2.03.19-3.65-.78-6.59-2.55l-3.32-1.99c-.06,2.1-.27,3.56-.99,4.97-.9,1.76-2.31,3.17-4.07,4.07-1.99,1.02-4.11,1.02-7.96,1.02ZM20.7,22.77c-2.69,0-4.47,0-5.14.34-.59.3-1.06.77-1.36,1.36-.34.66-.34,2.44-.34,5.14v17.39c0,2.69,0,4.47.34,5.14.3.59.77,1.06,1.36,1.36.66.34,2.44.34,5.14.34h20.5c2.69,0,4.47,0,5.14-.34.59-.3,1.06-.77,1.36-1.36.34-.66.34-2.44.34-5.14v-2.43s0-.07,0-.11v-12.31s0-.07,0-.11v-2.43c0-2.69,0-4.47-.34-5.14-.3-.59-.77-1.06-1.36-1.36-.66-.34-2.44-.34-5.14-.34h-20.5ZM63.42,48.58h0,0ZM54.24,42.75l6.49,3.9c1.06.63,2.14,1.29,2.75,1.57.07-.67.07-1.93.07-3.17v-13.5c0-1.23,0-2.5-.07-3.17-.61.28-1.69.93-2.75,1.57l-6.49,3.9v8.91ZM63.42,28.02s0,0,0,0c0,0,0,0,0,0Z"/>
</svg>