<?xml version="1.0" encoding="UTF-8"?>
<svg id="_Слой_1" data-name="Слой 1" xmlns="http://www.w3.org/2000/svg" viewBox="0 0 73.65 75">
  <defs>
    <style>
      .cls-1 {
        fill-rule: evenodd;
      }

      .cls-1, .cls-2 {
        fill: #fff;
        stroke-width: 0px;
      }
    </style>
  </defs>
  <path class="cls-1" d="M41.92,12.04h6.28c3.22,0,5.79,0,7.84.2,2.11.2,3.89.62,5.48,1.59,1.63,1,3.01,2.37,4.01,4.01.97,1.59,1.39,3.37,1.59,5.48.2,2.06.2,4.62.2,7.84v2.2c0,2.29,0,4.12-.1,5.6-.1,1.51-.32,2.81-.82,4.03-1.23,2.97-3.6,5.34-6.57,6.57-1.02.42-2.11.65-3.35.77-.01.38-.03.73-.06,1.07-.11,1.61-.34,2.98-.87,4.26-1.3,3.14-3.8,5.63-6.93,6.93-1.61.67-3.39.86-5.62.93-1.2.04-1.97.07-2.55.14-.55.07-.76.16-.87.22-.12.07-.3.21-.6.62-.32.45-.69,1.06-1.27,2.04l-.7,1.18c-1.83,3.09-6.35,3.09-8.17,0l-.7-1.18c-.58-.98-.95-1.59-1.27-2.04-.3-.41-.47-.55-.6-.62-.11-.07-.32-.16-.87-.22-.58-.07-1.35-.1-2.55-.14-2.23-.07-4.01-.27-5.62-.93-3.14-1.3-5.63-3.8-6.93-6.93-.53-1.28-.76-2.65-.87-4.26-.11-1.57-.11-3.52-.11-5.97v-2.34c0-3.44,0-6.17.21-8.36.21-2.24.66-4.12,1.68-5.79,1.06-1.72,2.51-3.17,4.23-4.23,1.67-1.02,3.55-1.47,5.79-1.68.57-.05,1.17-.09,1.82-.12.22-1.94.65-3.6,1.55-5.08,1-1.63,2.37-3.01,4.01-4.01,1.59-.97,3.37-1.39,5.48-1.59,2.06-.2,4.62-.2,7.84-.2ZM27.13,22.83c.77,0,1.59,0,2.45,0h6.68c3.44,0,6.17,0,8.36.21,2.24.21,4.12.66,5.79,1.68,1.72,1.06,3.17,2.51,4.23,4.23,1.02,1.67,1.47,3.55,1.68,5.79.21,2.19.21,4.92.21,8.36v2.34c0,.28,0,.55,0,.82.74-.1,1.28-.24,1.75-.43,1.98-.82,3.56-2.4,4.38-4.38.27-.64.44-1.45.52-2.76.09-1.33.09-3.01.09-5.4v-2.02c0-3.35,0-5.72-.18-7.56-.17-1.81-.5-2.9-1.02-3.75-.67-1.09-1.58-2-2.67-2.67-.84-.52-1.93-.84-3.75-1.02-1.84-.18-4.21-.18-7.56-.18h-6.07c-3.35,0-5.72,0-7.56.18-1.81.17-2.9.5-3.75,1.02-1.09.67-2,1.58-2.67,2.67-.43.71-.73,1.58-.91,2.88ZM21.6,27.06c-1.94.18-3.13.53-4.05,1.1-1.18.72-2.17,1.71-2.89,2.89-.57.93-.92,2.11-1.1,4.05-.19,1.97-.19,4.51-.19,8.08v2.16c0,2.54,0,4.35.1,5.77.1,1.4.28,2.28.57,2.98.89,2.15,2.6,3.85,4.74,4.74.9.37,2.06.56,4.2.63h.08c1.09.04,2.04.07,2.83.16.84.1,1.66.3,2.44.76.77.45,1.32,1.06,1.81,1.73.45.62.91,1.4,1.43,2.28l.74,1.26c.12.21.34.33.6.33s.48-.12.6-.33l.74-1.26c.52-.89.99-1.67,1.43-2.28.48-.67,1.04-1.27,1.81-1.73.78-.46,1.6-.66,2.44-.76.79-.1,1.74-.13,2.83-.16h.08c2.14-.07,3.3-.26,4.2-.63,2.15-.89,3.86-2.6,4.74-4.74.29-.7.47-1.58.57-2.98.1-1.42.1-3.22.1-5.77v-2.16c0-3.57,0-6.11-.19-8.08-.18-1.94-.53-3.13-1.1-4.05-.72-1.18-1.71-2.17-2.89-2.89-.93-.57-2.11-.92-4.05-1.1-1.97-.19-4.51-.19-8.08-.19h-6.47c-3.57,0-6.11,0-8.08.19Z"/>
  <path class="cls-2" d="M26.17,43.73c0,1.49-1.21,2.7-2.7,2.7s-2.7-1.21-2.7-2.7,1.21-2.7,2.7-2.7,2.7,1.21,2.7,2.7Z"/>
  <path class="cls-2" d="M35.61,43.73c0,1.49-1.21,2.7-2.7,2.7s-2.7-1.21-2.7-2.7,1.21-2.7,2.7-2.7,2.7,1.21,2.7,2.7Z"/>
  <path class="cls-2" d="M45.06,43.73c0,1.49-1.21,2.7-2.7,2.7s-2.7-1.21-2.7-2.7,1.21-2.7,2.7-2.7,2.7,1.21,2.7,2.7Z"/>
</svg>