<?xml version="1.0" encoding="UTF-8"?>
<svg id="_Слой_1" data-name="Слой 1" xmlns="http://www.w3.org/2000/svg" viewBox="0 0 73.65 75">
  <defs>
    <style>
      .cls-1 {
        fill: #eceded;
        stroke-width: 0px;
      }
    </style>
  </defs>
  <path class="cls-1" d="M65.07,21.31c0-.3-.11-.59-.34-.82l-11.53-11.53c-.22-.22-.52-.33-.82-.33h0s-31.14,0-31.14,0c-.64,0-1.15.52-1.15,1.15v5.77h-10.38c-.64,0-1.15.52-1.15,1.15v40.94c0,.64.52,1.15,1.15,1.15h10.38v5.19c0,.64.52,1.15,1.15,1.15h42.67c.64,0,1.15-.52,1.15-1.15V21.31h0ZM53.55,12.56l7.59,7.59h-7.59v-7.59ZM10.88,17.85h19.89v7.78c0,.64.52,1.15,1.15,1.15h7.78v29.7H10.88V17.85ZM33.08,19.48l5,5h-5v-5ZM22.41,62.83v-4.04h18.45c.64,0,1.15-.52,1.15-1.15V25.63c0-.31-.12-.6-.34-.82l-8.94-8.94c-.22-.22-.51-.34-.82-.34h-9.51v-4.61h28.83v10.38c0,.64.52,1.15,1.15,1.15h10.38v40.36H22.41Z"/>
  <rect class="cls-1" x="44.32" y="27.08" width="14.99" height="2.31"/>
  <rect class="cls-1" x="44.32" y="34" width="14.99" height="2.31"/>
  <rect class="cls-1" x="44.32" y="40.91" width="14.99" height="2.31"/>
  <rect class="cls-1" x="44.32" y="47.83" width="14.99" height="2.31"/>
  <rect class="cls-1" x="44.32" y="54.75" width="14.99" height="2.31"/>
  <rect class="cls-1" x="13.76" y="20.73" width="7.5" height="2.31"/>
  <rect class="cls-1" x="13.76" y="25.35" width="7.5" height="2.31"/>
  <rect class="cls-1" x="13.76" y="32.27" width="23.06" height="2.31"/>
  <rect class="cls-1" x="13.76" y="38.03" width="23.06" height="2.31"/>
  <rect class="cls-1" x="13.76" y="43.8" width="23.06" height="2.31"/>
  <rect class="cls-1" x="13.76" y="49.56" width="23.06" height="2.31"/>
</svg>