<svg version="1.2" xmlns="http://www.w3.org/2000/svg" viewBox="0 0 27 21" width="27" height="21"><style>.a{fill:#42ae8d}</style><path fill-rule="evenodd" class="a" d="m13.6 21.1c-4.4-0.2-7.9-2.2-10.7-5.5-0.3-0.3-0.6-0.7-0.9-1.1-1.8-1.9-1.8-5.6-0.2-7.6 2.2-2.8 4.7-5.2 8.3-6.2 4.4-1.2 8.3-0.3 11.8 2.4q2.4 1.9 4 4.4c1.2 1.9 1.3 4 0.2 5.8-2.1 3.6-5.1 6.2-9.2 7.3-1 0.2-2.2 0.3-3.3 0.5zm0.1-15.4c-2.7 0-4.9 2.2-5 4.8 0 2.8 2.2 5 4.9 5 2.7 0 5-2.2 5-4.9 0-2.7-2.2-4.9-4.9-4.9zm0 7.8c-1.7 0-3-1.3-3-2.9 0.1-1.6 1.3-2.9 3-2.9 1.6 0 2.9 1.3 2.9 2.9 0 1.6-1.3 2.9-2.9 2.9z"/></svg>