<?xml version="1.0" encoding="UTF-8"?>
<svg id="_Слой_1" data-name="Слой 1" xmlns="http://www.w3.org/2000/svg" viewBox="0 0 73.65 75">
  <defs>
    <style>
      .cls-1 {
        fill: #eceded;
        stroke-width: 0px;
      }
    </style>
  </defs>
  <path class="cls-1" d="M51.57,65.33h-29.73c-5.83,0-9.04,0-11.22-2.18-2.18-2.18-2.18-5.39-2.18-11.22v-29.73c0-5.83,0-9.04,2.18-11.22s5.39-2.18,11.22-2.18h29.73c5.83,0,9.04,0,11.22,2.18,2.18,2.18,2.18,5.39,2.18,11.22v29.73c0,5.83,0,9.04-2.18,11.22s-5.39,2.18-11.22,2.18ZM21.84,11.81c-5.18,0-7.78,0-9.08,1.3s-1.3,3.9-1.3,9.08v29.73c0,5.18,0,7.78,1.3,9.08,1.3,1.3,3.9,1.3,9.08,1.3h29.73c5.18,0,7.78,0,9.08-1.3s1.3-3.9,1.3-9.08v-29.73c0-5.18,0-7.78-1.3-9.08-1.3-1.3-3.9-1.3-9.08-1.3h-29.73Z"/>
  <path class="cls-1" d="M54.54,35.6h-14.87c-3.05,0-4.73,0-6.31-.79-1.57-.79-2.58-2.13-4.41-4.57l-1.79-2.38c-1.61-2.14-2.41-3.22-3.35-3.68-.94-.47-2.28-.47-4.96-.47h-8.92v-3.02h8.92c3.05,0,4.73,0,6.31.79,1.57.79,2.58,2.13,4.41,4.57l1.78,2.38c1.61,2.14,2.41,3.22,3.35,3.68.94.47,2.28.47,4.96.47h14.87c2.49,0,3.86,0,4.67-.34,1.09-.45,1.95-1.31,2.4-2.4.34-.82.34-2.18.34-4.67h3.02c0,2.97,0,4.46-.57,5.83-.76,1.84-2.2,3.27-4.04,4.04-1.37.57-2.86.57-5.83.57Z"/>
  <path class="cls-1" d="M45.62,50.47h-23.79c-.83,0-1.51-.68-1.51-1.51s.68-1.51,1.51-1.51h23.79c.83,0,1.51.68,1.51,1.51s-.68,1.51-1.51,1.51Z"/>
</svg>