<?xml version="1.0" encoding="UTF-8"?>
<svg id="_Слой_1" data-name="Слой 1" xmlns="http://www.w3.org/2000/svg" viewBox="0 0 73.65 75">
  <defs>
    <style>
      .cls-1 {
        fill: #39b292;
        stroke-width: 0px;
      }
    </style>
  </defs>
  <path class="cls-1" d="M36.82,66.36c-.78,0-1.53-.32-2.07-.87-.8-.83-1.62-1.66-2.41-2.47-9.57-9.76-18.61-18.98-18.61-30.71,0-6.31,2.39-12.24,6.73-16.71,4.36-4.49,10.17-6.96,16.36-6.96s11.99,2.47,16.36,6.96c4.34,4.47,6.73,10.4,6.73,16.71,0,11.74-9.04,20.95-18.61,30.71-.79.81-1.61,1.64-2.41,2.47-.54.56-1.29.87-2.07.87ZM36.82,14.41c-9.55,0-17.32,8.03-17.32,17.89,0,4.19,1.56,8.36,4.9,13.11,3.16,4.48,7.48,8.89,12.05,13.56.12.12.24.25.36.37.12-.12.24-.25.36-.37,4.58-4.67,8.9-9.08,12.05-13.56,3.34-4.75,4.9-8.92,4.9-13.11,0-9.87-7.77-17.89-17.32-17.89Z"/>
  <path class="cls-1" d="M36.82,43.27c-6.37,0-11.54-5.18-11.54-11.54s5.18-11.54,11.54-11.54,11.54,5.18,11.54,11.54-5.18,11.54-11.54,11.54ZM36.82,25.96c-3.18,0-5.77,2.59-5.77,5.77s2.59,5.77,5.77,5.77,5.77-2.59,5.77-5.77-2.59-5.77-5.77-5.77Z"/>
</svg>