<?xml version="1.0" encoding="UTF-8"?>
<svg id="_Слой_1" data-name="Слой 1" xmlns="http://www.w3.org/2000/svg" viewBox="0 0 73.65 75">
  <defs>
    <style>
      .cls-1 {
        fill: #eceded;
        fill-rule: evenodd;
        stroke-width: 0px;
      }
    </style>
  </defs>
  <path class="cls-1" d="M44.31,23.95c-1.02,0-1.85-.83-1.85-1.85V7.34h-23.99c-2.04,0-3.69,1.65-3.69,3.69v51.68c0,2.04,1.65,3.69,3.69,3.69h36.91c2.04,0,3.69-1.65,3.69-3.69V23.95h-14.77ZM62.77,22.11v40.61c0,4.08-3.31,7.38-7.38,7.38H18.47c-4.08,0-7.38-3.31-7.38-7.38V11.03c0-4.08,3.31-7.38,7.38-7.38h25.84l18.46,18.46ZM46.16,10.72l9.55,9.55h-9.55v-9.55Z"/>
  <path class="cls-1" d="M18.47,53.49c0-1.02.83-1.85,1.85-1.85h33.22c1.02,0,1.85.83,1.85,1.85s-.83,1.85-1.85,1.85H20.32c-1.02,0-1.85-.83-1.85-1.85Z"/>
  <path class="cls-1" d="M18.47,60.87c0-1.02.83-1.85,1.85-1.85h22.15c1.02,0,1.85.83,1.85,1.85s-.83,1.85-1.85,1.85h-22.15c-1.02,0-1.85-.83-1.85-1.85Z"/>
  <path class="cls-1" d="M29.55,22.11c.75,0,1.42.45,1.7,1.14l9.23,22.15c.39.94-.05,2.02-.99,2.41s-2.02-.05-2.41-.99l-7.52-18.06-7.52,18.06c-.39.94-1.47,1.39-2.41.99s-1.39-1.47-.99-2.41l9.23-22.15c.29-.69.96-1.14,1.7-1.14Z"/>
  <path class="cls-1" d="M22.17,38.72h14.77v3.69h-14.77v-3.69Z"/>
  <path class="cls-1" d="M48.01,33.18c1.02,0,1.85.83,1.85,1.85v11.07c0,1.02-.83,1.85-1.85,1.85s-1.85-.83-1.85-1.85v-11.07c0-1.02.83-1.85,1.85-1.85Z"/>
  <path class="cls-1" d="M40.62,40.57c0-1.02.83-1.85,1.85-1.85h11.07c1.02,0,1.85.83,1.85,1.85s-.83,1.85-1.85,1.85h-11.07c-1.02,0-1.85-.83-1.85-1.85Z"/>
</svg>