<svg width="108" height="104" viewBox="0 0 108 104" fill="none" xmlns="http://www.w3.org/2000/svg">
<path d="M41.78 64.3C39.25 65.37 36.68 66.34 34.21 67.53C32 68.59 30.06 68.43 28.02 67.11C22.25 63.36 16.34 59.82 10.71 55.88C9.33002 54.91 7.99002 52.64 8.13002 51.11C8.27002 49.59 10.02 47.53 11.55 46.92C38.09 36.36 64.69 25.97 91.3 15.6C96.25 13.67 99.36 16.53 98.37 22.1C96.16 34.55 93.84 46.98 91.57 59.42C89.86 68.82 88.13 78.22 86.46 87.64C85.51 93.03 82.69 94.51 77.77 92.07C71.71 89.06 65.63 86.07 59.62 82.95C57.95 82.09 56.85 82.11 55.52 83.57C53.03 86.29 50.29 88.78 47.74 91.45C46.1 93.17 44.17 93.73 42.04 92.89C39.86 92.04 39.03 90.21 39.07 87.86C39.15 82.97 39.15 78.08 39.07 73.19C39.02 69.96 38.87 66.78 41.77 64.3H41.78ZM23.23 52.57C25.46 54 27.3 55.01 28.94 56.28C30.9 57.82 32.64 57.81 34.93 56.77C43.63 52.81 52.44 49.09 61.21 45.29C64.64 43.81 66.84 44.17 68.43 46.44C69.96 48.63 69.47 50.99 66.9 53.57C61.47 59.02 56.12 64.54 50.55 69.83C48.5 71.78 48.53 73.75 49.4 76.34C50.36 75.68 50.91 74.7 51.67 73.93C54.83 70.73 56.16 70.52 60.1 72.48C63.31 74.08 66.51 75.7 69.73 77.29C72.37 78.59 75.01 79.87 77.83 81.24C81.1 63.21 84.3 45.6 87.61 27.38C65.99 35.84 44.9 44.09 23.24 52.56L23.23 52.57Z" fill="white"/>
</svg>
