<svg width="108" height="104" viewBox="0 0 108 104" fill="none" xmlns="http://www.w3.org/2000/svg">
<path d="M65.24 49.84C66.35 48.46 67.66 47.2 68.53 45.68C71.31 40.86 74.1 36.04 76.56 31.05C78.18 27.77 80.4 25.99 84.1 26.07C87.16 26.13 90.22 26.05 93.29 26.09C97.66 26.15 100.03 29.13 98.63 33.29C97.59 36.38 96.14 39.39 94.49 42.22C91.93 46.62 89.04 50.83 86.29 55.12C85.97 55.61 85.64 56.1 85.31 56.6C88.51 60.14 91.75 63.51 94.74 67.1C96.61 69.34 98.36 71.76 99.72 74.34C102.49 79.62 99.87 83.72 93.95 83.73C91.31 83.73 88.66 83.62 86.03 83.76C82.9 83.93 80.45 82.75 78.35 80.55C75.41 77.47 72.5 74.35 69.46 71.37C68.22 70.15 66.66 69.26 64.81 67.9C64.81 71.15 64.76 73.77 64.82 76.38C64.92 80.7 63.37 82.72 59.09 83.38C50.23 84.75 42.51 81.86 35.55 76.66C26.6 69.97 20.44 61 15.4 51.2C12.52 45.6 10.03 39.83 8.77 33.61C7.82 28.91 10.07 26.11 14.82 26.09C17.76 26.07 20.7 26.09 23.65 26.09C27.52 26.09 29.45 27.44 30.89 31.07C32.08 34.08 33.05 37.19 34.52 40.05C36.7 44.3 39.23 48.38 41.63 52.51C41.85 52.9 42.21 53.2 42.76 53.84C42.76 48.7 42.9 43.92 42.67 39.16C42.6 37.8 41.6 36.4 40.8 35.17C39.54 33.22 38.52 31.27 39.67 28.98C40.84 26.67 42.92 26.02 45.39 26.06C49.89 26.13 54.4 26.08 58.9 26.08C62.68 26.08 64.61 27.77 64.74 31.6C64.89 36.1 64.77 40.6 64.76 45.1C64.76 46.59 64.76 48.09 64.76 49.58C64.92 49.67 65.08 49.75 65.24 49.84ZM59.01 77.58C59.01 75.51 58.97 73.66 59.02 71.8C59.07 70.01 59.09 68.19 59.35 66.42C59.75 63.72 61.29 62.53 64.03 62.42C67.23 62.29 69.74 63.88 71.9 65.87C75.29 69 78.43 72.39 81.72 75.63C82.56 76.46 83.51 77.69 84.49 77.77C87.91 78.03 91.35 77.87 95.26 77.87C94.14 76.11 93.39 74.59 92.33 73.34C89.18 69.64 85.96 66 82.68 62.41C78.5 57.84 78.45 56.42 81.8 51.29C85.21 46.08 88.41 40.72 91.63 35.39C92.25 34.36 92.58 33.16 93.13 31.83C90.09 31.83 87.39 31.92 84.7 31.8C83.14 31.73 82.42 32.33 81.71 33.7C79.08 38.74 76.43 43.78 73.45 48.61C72 50.97 69.96 53.03 67.9 54.92C66.18 56.5 63.99 57.81 61.52 56.53C59.15 55.3 59.04 52.87 59.03 50.56C58.99 44.98 59.01 39.39 59 33.81C59 33.18 59 32.55 59 31.98H46.14C46.87 33.87 48.11 35.67 48.19 37.53C48.49 44.11 48.57 50.71 48.38 57.3C48.3 59.98 45.92 61.51 43.39 60.94C42.17 60.66 40.87 59.97 39.99 59.08C38.19 57.25 36.48 55.29 35.05 53.16C30.99 47.11 28.09 40.47 25.61 33.63C25.35 32.92 24.56 31.94 23.97 31.91C20.8 31.74 17.62 31.83 14.27 31.83C14.52 32.88 14.67 33.76 14.93 34.61C18.36 46.02 23.94 56.27 31.75 65.27C35.84 69.98 40.56 73.94 46.48 76.22C50.47 77.75 54.56 78.4 58.99 77.56L59.01 77.58Z" fill="white"/>
</svg>
