<svg width="108" height="104" viewBox="0 0 108 104" fill="none" xmlns="http://www.w3.org/2000/svg">
<path d="M10.69 97.8C12.51 91.14 14.18 84.77 16.02 78.45C16.59 76.49 16.45 74.91 15.51 73.03C2.83 47.52 18.31 16.92 46.38 11.84C70.55 7.47 93.25 24.03 96.61 48.48C99.73 71.16 83.71 92.74 61.08 96.44C51.88 97.94 43.16 96.55 34.79 92.55C33.97 92.16 32.81 92.05 31.92 92.27C24.94 94.02 17.99 95.88 10.69 97.79V97.8ZM21.06 87.56C25.21 86.46 28.93 85.53 32.62 84.47C33.93 84.1 34.98 84.25 36.16 84.94C43.26 89.07 50.96 90.65 59.06 89.4C79.17 86.3 92.3 68.19 89.14 48.12C86.13 28.98 67.23 15.46 48.21 18.86C22.97 23.36 10.42 51.07 23.74 72.94C24.39 74 24.54 74.92 24.18 76.13C23.1 79.79 22.16 83.49 21.06 87.57V87.56Z" fill="white"/>
<path d="M65.13 74.78C59.96 74.28 55.24 72.38 50.86 69.69C43.85 65.38 38.56 59.34 34.45 52.28C32.43 48.81 31.31 45 32.71 41.06C33.43 39.04 34.69 37.07 36.14 35.48C38.43 32.96 42.34 33.88 43.64 36.99C44.56 39.2 45.43 41.44 46.44 43.62C47.02 44.87 46.92 45.92 46.06 46.95C45.64 47.46 45.27 48.01 44.86 48.53C43.5733 50.21 43.54 51.95 44.76 53.75C48.09 58.67 52.51 62.22 57.97 64.53C59.16 65.03 60.01 64.88 60.79 63.86C61.7 62.66 62.7 61.54 63.6 60.34C64.3 59.4 65.07 58.99 66.22 59.54C69.08 60.93 71.97 62.25 74.81 63.69C75.24 63.91 75.69 64.59 75.71 65.07C75.79 67.67 75.28 70.09 73.09 71.85C70.77 73.72 68.19 74.85 65.12 74.78H65.13Z" fill="white"/>
</svg>
