<?xml version="1.0" encoding="UTF-8"?>
<svg id="_Слой_1" data-name="Слой 1" xmlns="http://www.w3.org/2000/svg" viewBox="0 0 73.65 75">
  <defs>
    <style>
      .cls-1 {
        fill: #eceded;
        stroke-width: 0px;
      }
    </style>
  </defs>
  <path class="cls-1" d="M19.28,67.55c-.12,0-.25,0-.37-.03-1.14-.15-2.11-.86-2.61-1.9-.57-1.19-.2-2.44.63-5.16l4.42-14.6c.06-.2.13-.42.17-.57-.11-.09-.3-.23-.46-.36l-12.16-9.22c-2.27-1.72-3.31-2.51-3.54-3.81-.21-1.13.17-2.28,1-3.07.96-.91,2.26-.94,5.1-1l15.25-.31c.21,0,.44,0,.59-.02.05-.14.13-.36.2-.56l5.01-14.41,1.67.58-1.67-.58c.93-2.69,1.36-3.92,2.53-4.54,1.01-.54,2.22-.54,3.23,0,1.16.63,1.59,1.86,2.53,4.54l5.01,14.41c.07.2.15.42.2.56.15,0,.38.01.59.02l15.25.31c2.85.06,4.15.08,5.1,1,.83.79,1.2,1.94,1,3.07-.24,1.3-1.27,2.08-3.54,3.8l-12.16,9.22c-.17.13-.35.27-.47.36.04.14.1.36.17.57l4.42,14.6c.82,2.73,1.2,3.97.63,5.16-.5,1.03-1.47,1.74-2.61,1.9-1.31.18-2.38-.57-4.72-2.19l-12.52-8.71c-.17-.12-.36-.25-.49-.33-.13.08-.31.21-.49.33l-12.52,8.71c-2.11,1.47-3.19,2.22-4.34,2.22ZM9.16,31.45c.45.38,1.16.92,1.85,1.45l12.16,9.22c.63.48,1.04.79,1.38,1.32.29.47.47,1.01.51,1.56.04.63-.11,1.12-.33,1.88l-4.42,14.6c-.25.83-.51,1.69-.65,2.26.51-.31,1.24-.82,1.95-1.32l12.52-8.71c.65-.45,1.07-.75,1.68-.9.54-.13,1.1-.13,1.64,0,.61.15,1.04.45,1.68.9l12.52,8.71c.72.5,1.45,1.01,1.95,1.32-.14-.58-.4-1.43-.65-2.26l-4.42-14.6c-.23-.76-.38-1.25-.34-1.88.04-.55.21-1.09.51-1.56.33-.53.75-.85,1.37-1.32l12.16-9.22c.7-.53,1.41-1.07,1.85-1.45-.59-.05-1.48-.07-2.35-.08l-15.25-.31c-.79-.02-1.31-.03-1.89-.26-.51-.21-.97-.54-1.32-.96-.4-.48-.57-.97-.83-1.71l-5.01-14.41c-.29-.82-.58-1.67-.81-2.21-.23.55-.52,1.39-.81,2.21l-1.67-.58,1.67.58-5.01,14.41c-.26.75-.43,1.24-.83,1.72-.35.42-.81.75-1.32.96-.58.24-1.1.25-1.89.26l-15.25.31c-.87.02-1.76.04-2.35.08ZM21.6,45.38,51.72,45.17h0ZM64.71,31.55h0,0ZM8.55,31.55h0s0,0,0,0ZM64.54,31.02h0ZM27.23,27.63s0,0,0,0c0,0,0,0,0,0ZM45.85,27.5s0,0,0,0c0,0,0,0,0,0Z"/>
</svg>