<?xml version="1.0" encoding="UTF-8"?>
<svg id="_Слой_1" data-name="Слой 1" xmlns="http://www.w3.org/2000/svg" viewBox="0 0 73.65 75">
  <defs>
    <style>
      .cls-1 {
        fill: #39b292;
        stroke-width: 0px;
      }
    </style>
  </defs>
  <path class="cls-1" d="M50.64,70.22c-6.77,0-12.28-5.51-12.28-12.28s5.51-12.28,12.28-12.28c2.85,0,5.54.99,7.68,2.7v-1.16c0-1.7,1.37-3.07,3.07-3.07s3.07,1.37,3.07,3.07v9.21c0,1.7-1.37,3.07-3.07,3.07h-9.21c-1.7,0-3.07-1.37-3.07-3.07s1.37-3.07,3.07-3.07h2.53c-1.1-.97-2.53-1.54-4.06-1.54-3.39,0-6.14,2.76-6.14,6.14s2.76,6.14,6.14,6.14c1.51,0,2.97-.56,4.09-1.56,1.26-1.13,3.21-1.02,4.34.24,1.13,1.26,1.02,3.21-.24,4.34-2.25,2.02-5.16,3.13-8.19,3.13ZM12.26,70.22c-1.7,0-3.07-1.37-3.07-3.07,0-6.56,2.56-12.73,7.2-17.37,4.64-4.64,10.81-7.2,17.37-7.2,1.7,0,3.07,1.37,3.07,3.07s-1.37,3.07-3.07,3.07c-10.16,0-18.42,8.27-18.42,18.42,0,1.7-1.37,3.07-3.07,3.07ZM33.75,39.51c-8.47,0-15.35-6.89-15.35-15.35s6.89-15.35,15.35-15.35,15.35,6.89,15.35,15.35-6.89,15.35-15.35,15.35ZM33.75,14.95c-5.08,0-9.21,4.13-9.21,9.21s4.13,9.21,9.21,9.21,9.21-4.13,9.21-9.21-4.13-9.21-9.21-9.21Z"/>
</svg>